<svg xmlns="http://www.w3.org/2000/svg" viewBox="0 0 470 160" width="940" height="320">
  <g transform="translate(0,20)">
    <rect width="120" height="120" rx="30" fill="#1E56FF"/>
    <circle cx="38" cy="40" r="9" fill="#ffffff"/>
    <polygon points="52,30 70,30 92,86 74,86" fill="#ffffff"/>
  </g>
  <g fill="none" stroke="#0B0B0F" stroke-width="14" stroke-linecap="round" stroke-linejoin="round">
    <path d="M162 120 L162 66 A18 16 0 0 1 198 66 L198 120 M198 66 A18 16 0 0 1 234 66 L234 120"/>
    <path d="M258 120 L258 66"/>
    <path d="M290 40 L290 112 M276 66 L308 66"/>
    <path d="M322 66 L345 100 M368 66 L345 100"/>
    <path d="M392 66 L392 102 A18 16 0 0 0 428 102 L428 66"/>
  </g>
  <circle cx="258" cy="44" r="8" fill="#0B0B0F"/>
  <path d="M345 100 L362 150" fill="none" stroke="#0B0B0F" stroke-width="14" stroke-linecap="butt"/>
</svg>
